<svg width="52" height="52" viewBox="0 0 52 52" fill="none" xmlns="http://www.w3.org/2000/svg">
<path d="M31.6875 14.625H20.3125C20.097 14.625 19.8903 14.5394 19.738 14.387C19.5856 14.2347 19.5 14.028 19.5 13.8125V8.125C19.5 6.40109 20.1848 4.74779 21.4038 3.52881C22.6228 2.30982 24.2761 1.625 26 1.625C27.7239 1.625 29.3772 2.30982 30.5962 3.52881C31.8152 4.74779 32.5 6.40109 32.5 8.125V13.8125C32.5 14.028 32.4144 14.2347 32.262 14.387C32.1097 14.5394 31.903 14.625 31.6875 14.625ZM21.125 13H30.875V8.125C30.875 6.83207 30.3614 5.59209 29.4471 4.67785C28.5329 3.76361 27.2929 3.25 26 3.25C24.7071 3.25 23.4671 3.76361 22.5529 4.67785C21.6386 5.59209 21.125 6.83207 21.125 8.125V13Z" fill="#0B3DC5"/>
<path d="M45.5 34.125H6.5C3.35888 34.125 0.8125 36.6714 0.8125 39.8125V44.6875C0.8125 47.8286 3.35888 50.375 6.5 50.375H45.5C48.6411 50.375 51.1875 47.8286 51.1875 44.6875V39.8125C51.1875 36.6714 48.6411 34.125 45.5 34.125Z" fill="#E6ECFF"/>
<path d="M35.1059 38.4256C35.0305 38.3501 34.9409 38.2902 34.8424 38.2494C34.7438 38.2085 34.6382 38.1875 34.5315 38.1875C34.4248 38.1875 34.3191 38.2085 34.2206 38.2494C34.122 38.2902 34.0324 38.3501 33.957 38.4256L31.2815 41.1011L28.6059 38.4256C28.4527 38.2776 28.2474 38.1957 28.0344 38.1975C27.8214 38.1994 27.6176 38.2848 27.4669 38.4355C27.3163 38.5861 27.2308 38.7899 27.229 39.003C27.2271 39.216 27.309 39.4212 27.457 39.5745L30.1325 42.25L27.457 44.9256C27.3794 45.0005 27.3175 45.0902 27.2749 45.1893C27.2324 45.2885 27.21 45.3951 27.209 45.503C27.2081 45.6108 27.2286 45.7178 27.2695 45.8177C27.3103 45.9175 27.3707 46.0082 27.447 46.0845C27.5232 46.1608 27.614 46.2212 27.7138 46.262C27.8137 46.3029 27.9207 46.3234 28.0285 46.3225C28.1364 46.3215 28.243 46.2991 28.3422 46.2565C28.4413 46.214 28.531 46.1521 28.6059 46.0745L31.2815 43.399L33.957 46.0745C34.1103 46.2225 34.3155 46.3044 34.5285 46.3025C34.7416 46.3007 34.9454 46.2152 35.096 46.0646C35.2467 45.9139 35.3321 45.7101 35.334 45.4971C35.3358 45.2841 35.2539 45.0788 35.1059 44.9256L32.4304 42.25L35.1059 39.5745C35.1814 39.4991 35.2413 39.4095 35.2821 39.3109C35.323 39.2124 35.344 39.1067 35.344 39C35.344 38.8933 35.323 38.7877 35.2821 38.6891C35.2413 38.5906 35.1814 38.501 35.1059 38.4256Z" fill="#1189F6"/>
<path d="M42.9929 42.25L45.6684 39.5745C45.8164 39.4212 45.8983 39.216 45.8965 39.0029C45.8946 38.7899 45.8092 38.5861 45.6585 38.4355C45.5079 38.2848 45.3041 38.1994 45.091 38.1975C44.878 38.1957 44.6728 38.2776 44.5195 38.4256L41.844 41.1011L39.1684 38.4256C39.0152 38.2776 38.8099 38.1957 38.5969 38.1975C38.3839 38.1994 38.1801 38.2848 38.0294 38.4355C37.8788 38.5861 37.7933 38.7899 37.7915 39.0029C37.7896 39.216 37.8715 39.4212 38.0195 39.5745L40.695 42.25L38.0195 44.9256C37.9419 45.0005 37.88 45.0902 37.8374 45.1893C37.7949 45.2885 37.7725 45.3951 37.7715 45.5029C37.7706 45.6108 37.7911 45.7178 37.832 45.8177C37.8728 45.9175 37.9332 46.0082 38.0095 46.0845C38.0857 46.1608 38.1765 46.2212 38.2763 46.262C38.3762 46.3029 38.4832 46.3234 38.591 46.3225C38.6989 46.3215 38.8055 46.2991 38.9047 46.2565C39.0038 46.214 39.0935 46.1521 39.1684 46.0745L41.844 43.399L44.5195 46.0745C44.6728 46.2225 44.878 46.3044 45.091 46.3025C45.3041 46.3007 45.5079 46.2152 45.6585 46.0646C45.8092 45.9139 45.8946 45.7101 45.8965 45.4971C45.8983 45.2841 45.8164 45.0788 45.6684 44.9256L42.9929 42.25Z" fill="#1189F6"/>
<path d="M13.9809 38.4255C13.9055 38.3501 13.8159 38.2902 13.7174 38.2493C13.6188 38.2085 13.5132 38.1874 13.4065 38.1874C13.2998 38.1874 13.1941 38.2085 13.0956 38.2493C12.997 38.2902 12.9074 38.3501 12.832 38.4255L10.1565 41.101L7.48091 38.4255C7.40596 38.3479 7.3163 38.286 7.21717 38.2435C7.11804 38.2009 7.01143 38.1785 6.90354 38.1775C6.79566 38.1766 6.68867 38.1971 6.58882 38.238C6.48897 38.2788 6.39825 38.3392 6.32196 38.4155C6.24567 38.4918 6.18534 38.5825 6.14449 38.6823C6.10364 38.7822 6.08308 38.8892 6.08402 38.9971C6.08495 39.1049 6.10737 39.2115 6.14995 39.3107C6.19253 39.4098 6.25443 39.4995 6.33203 39.5744L9.00751 42.25L6.33203 44.9255C6.25443 45.0005 6.19253 45.0901 6.14995 45.1893C6.10737 45.2884 6.08495 45.395 6.08402 45.5029C6.08308 45.6108 6.10364 45.7178 6.14449 45.8176C6.18534 45.9175 6.24567 46.0082 6.32196 46.0845C6.39825 46.1608 6.48897 46.2211 6.58882 46.262C6.68867 46.3028 6.79566 46.3234 6.90354 46.3224C7.01143 46.3215 7.11804 46.2991 7.21717 46.2565C7.3163 46.2139 7.40596 46.152 7.48091 46.0744L10.1565 43.3989L12.832 46.0744C12.9853 46.2224 13.1905 46.3043 13.4035 46.3025C13.6166 46.3006 13.8204 46.2152 13.971 46.0645C14.1217 45.9139 14.2071 45.7101 14.209 45.4971C14.2108 45.284 14.1289 45.0788 13.9809 44.9255L11.3054 42.25L13.9809 39.5744C14.0564 39.499 14.1163 39.4094 14.1571 39.3109C14.198 39.2123 14.219 39.1067 14.219 39C14.219 38.8933 14.198 38.7876 14.1571 38.6891C14.1163 38.5905 14.0564 38.5009 13.9809 38.4255Z" fill="#1189F6"/>
<path d="M24.5434 38.4256C24.468 38.3501 24.3784 38.2902 24.2799 38.2494C24.1813 38.2085 24.0757 38.1875 23.969 38.1875C23.8623 38.1875 23.7566 38.2085 23.6581 38.2494C23.5595 38.2902 23.4699 38.3501 23.3945 38.4256L20.719 41.1011L18.0434 38.4256C17.8902 38.2776 17.6849 38.1957 17.4719 38.1975C17.2589 38.1994 17.0551 38.2848 16.9044 38.4355C16.7538 38.5861 16.6683 38.7899 16.6665 39.003C16.6646 39.216 16.7465 39.4212 16.8945 39.5745L19.57 42.25L16.8945 44.9256C16.8169 45.0005 16.755 45.0902 16.7124 45.1893C16.6699 45.2885 16.6475 45.3951 16.6465 45.503C16.6456 45.6108 16.6661 45.7178 16.707 45.8177C16.7478 45.9175 16.8082 46.0082 16.8845 46.0845C16.9607 46.1608 17.0515 46.2212 17.1513 46.262C17.2512 46.3029 17.3582 46.3234 17.466 46.3225C17.5739 46.3215 17.6805 46.2991 17.7797 46.2565C17.8788 46.214 17.9685 46.1521 18.0434 46.0745L20.719 43.399L23.3945 46.0745C23.5478 46.2225 23.753 46.3044 23.966 46.3025C24.1791 46.3007 24.3829 46.2152 24.5335 46.0646C24.6842 45.9139 24.7696 45.7101 24.7715 45.4971C24.7733 45.2841 24.6914 45.0788 24.5434 44.9256L21.8679 42.25L24.5434 39.5745C24.6189 39.4991 24.6788 39.4095 24.7196 39.3109C24.7605 39.2124 24.7815 39.1067 24.7815 39C24.7815 38.8933 24.7605 38.7877 24.7196 38.6891C24.6788 38.5906 24.6189 38.501 24.5434 38.4256Z" fill="#1189F6"/>
<path d="M32.5 13H19.5C16.3589 13 13.8125 15.5464 13.8125 18.6875V30.0625C13.8125 33.2036 16.3589 35.75 19.5 35.75H32.5C35.6411 35.75 38.1875 33.2036 38.1875 30.0625V18.6875C38.1875 15.5464 35.6411 13 32.5 13Z" fill="#1189F6"/>
<path d="M28.5257 18.7549C28.0402 18.371 27.4739 18.1023 26.8695 17.9692C26.2651 17.8361 25.6383 17.842 25.0365 17.9864C24.2888 18.1672 23.6081 18.5571 23.0738 19.1104C22.5395 19.6638 22.1738 20.3577 22.0192 21.1112C21.8646 21.8647 21.9277 22.6466 22.201 23.3656C22.4743 24.0846 22.9465 24.711 23.5626 25.1716V28.4374C23.5626 29.0839 23.8194 29.7039 24.2765 30.161C24.7336 30.6181 25.3536 30.8749 26.0001 30.8749C26.6466 30.8749 27.2665 30.6181 27.7237 30.161C28.1808 29.7039 28.4376 29.0839 28.4376 28.4374V25.1712C28.9344 24.8001 29.3393 24.3197 29.621 23.7673C29.9027 23.2148 30.0536 22.605 30.0621 21.9849C30.0706 21.3648 29.9365 20.7511 29.6701 20.1911C29.4037 19.6311 29.0121 19.1399 28.5257 18.7553V18.7549Z" fill="#0B3DC5"/>
</svg>
